<svg xmlns="http://www.w3.org/2000/svg" width="1103" height="400" viewBox="0 0 1103 400">
  <g transform="translate(210,200.0) scale(0.92)">
    <path d="M 58.66 -20.17 L 100.00 0.00 L 58.66 20.17" fill="none" stroke="#FFAC26" stroke-width="15.0" stroke-linecap="round" stroke-linejoin="miter" stroke-miterlimit="6"/>
    <path d="M 20.17 58.66 L 0.00 100.00 L -20.17 58.66" fill="none" stroke="#12141C" stroke-width="15.0" stroke-linecap="round" stroke-linejoin="miter" stroke-miterlimit="6"/>
    <path d="M -58.66 20.17 L -100.00 0.00 L -58.66 -20.17" fill="none" stroke="#12141C" stroke-width="15.0" stroke-linecap="round" stroke-linejoin="miter" stroke-miterlimit="6"/>
    <path d="M -20.17 -58.66 L -0.00 -100.00 L 20.17 -58.66" fill="none" stroke="#12141C" stroke-width="15.0" stroke-linecap="round" stroke-linejoin="miter" stroke-miterlimit="6"/>
    <path d="M 37.67 17.83 L 48.08 48.08 L 17.83 37.67" fill="none" stroke="#12141C" stroke-width="12.0" stroke-linecap="round" stroke-linejoin="miter" stroke-miterlimit="6"/>
    <path d="M -17.83 37.67 L -48.08 48.08 L -37.67 17.83" fill="none" stroke="#12141C" stroke-width="12.0" stroke-linecap="round" stroke-linejoin="miter" stroke-miterlimit="6"/>
    <path d="M -37.67 -17.83 L -48.08 -48.08 L -17.83 -37.67" fill="none" stroke="#12141C" stroke-width="12.0" stroke-linecap="round" stroke-linejoin="miter" stroke-miterlimit="6"/>
    <path d="M 17.83 -37.67 L 48.08 -48.08 L 37.67 -17.83" fill="none" stroke="#12141C" stroke-width="12.0" stroke-linecap="round" stroke-linejoin="miter" stroke-miterlimit="6"/>
    <circle cx="0" cy="0" r="10.50" fill="#FFAC26"/>
  </g>
  <g transform="translate(394.0,252.54)">
    <path d="M41.144 1.184Q27.232 1.184 19.536 -5.032Q11.84 -11.248 11.84 -22.496H26.343999999999998Q26.343999999999998 -17.168 30.266 -14.134Q34.187999999999995 -11.1 41.144 -11.1H47.656Q54.907999999999994 -11.1 58.83 -14.207999999999998Q62.751999999999995 -17.316 62.751999999999995 -22.939999999999998Q62.751999999999995 -32.856 52.983999999999995 -34.04L31.08 -37.147999999999996Q22.348 -38.48 17.612 -44.32599999999999Q12.876 -50.172 12.876 -59.495999999999995Q12.876 -70.448 20.276 -76.51599999999999Q27.676 -82.58399999999999 40.995999999999995 -82.58399999999999H47.507999999999996Q59.94 -82.58399999999999 67.636 -76.66399999999999Q75.332 -70.744 75.776 -60.976H60.976Q60.68 -65.11999999999999 57.128 -67.85799999999999Q53.576 -70.59599999999999 47.507999999999996 -70.59599999999999H40.995999999999995Q34.336 -70.59599999999999 30.71 -67.636Q27.084 -64.676 27.084 -59.644Q27.084 -51.504 35.224 -50.467999999999996L55.796 -47.507999999999996Q76.96 -44.696 76.96 -22.939999999999998Q76.96 -11.395999999999999 69.338 -5.106Q61.715999999999994 1.184 47.656 1.184Z M137.78799999999998 0.0Q127.27999999999999 0.0 121.13799999999998 -6.068Q114.99599999999998 -12.136 114.99599999999998 -22.2V-68.08H91.75999999999999V-81.39999999999999H114.99599999999998V-104.33999999999999H129.648V-81.39999999999999H162.652V-68.08H129.648V-22.348Q129.648 -18.352 131.942 -15.835999999999999Q134.236 -13.319999999999999 138.084 -13.319999999999999H161.91199999999998V0.0Z M214.896 1.48Q200.24399999999997 1.48 191.28999999999996 -7.252Q182.33599999999998 -15.984 182.33599999999998 -31.08V-50.32Q182.33599999999998 -65.416 191.28999999999996 -74.148Q200.24399999999997 -82.88 214.896 -82.88Q224.664 -82.88 231.98999999999998 -78.958Q239.31599999999997 -75.036 243.38599999999997 -68.006Q247.45599999999996 -60.976 247.45599999999996 -51.651999999999994V-37.0H196.69199999999998V-29.895999999999997Q196.69199999999998 -21.016 201.57599999999996 -15.983999999999998Q206.45999999999998 -10.952 214.896 -10.952Q221.99999999999997 -10.952 226.58799999999997 -13.616Q231.176 -16.279999999999998 232.06399999999996 -21.016H246.71599999999998Q245.236 -10.655999999999999 236.504 -4.587999999999999Q227.772 1.48 214.896 1.48ZM196.69199999999998 -51.651999999999994V-47.803999999999995H233.09999999999997V-51.651999999999994Q233.09999999999997 -60.976 228.36399999999998 -66.008Q223.628 -71.03999999999999 214.896 -71.03999999999999Q206.164 -71.03999999999999 201.428 -66.008Q196.69199999999998 -60.976 196.69199999999998 -51.651999999999994Z M312.28 0.0Q301.17999999999995 0.0 294.52 -6.512Q287.85999999999996 -13.024 287.85999999999996 -23.828V-94.72H260.03599999999994V-108.03999999999999H302.51199999999994V-23.976Q302.51199999999994 -19.092 305.24999999999994 -16.206Q307.98799999999994 -13.319999999999999 312.724 -13.319999999999999H337.43999999999994V0.0Z M397.52799999999996 0.0Q386.42799999999994 0.0 379.7679999999999 -6.512Q373.10799999999995 -13.024 373.10799999999995 -23.828V-94.72H345.28399999999993V-108.03999999999999H387.76V-23.976Q387.76 -19.092 390.498 -16.206Q393.236 -13.319999999999999 397.972 -13.319999999999999H422.688V0.0Z M463.0919999999999 1.48Q450.51199999999994 1.48 443.1859999999999 -5.55Q435.85999999999996 -12.58 435.85999999999996 -23.976Q435.85999999999996 -35.372 443.48199999999997 -42.328Q451.1039999999999 -49.284 463.53599999999994 -49.284H487.3639999999999V-55.5Q487.3639999999999 -70.448 470.78799999999995 -70.448Q463.3879999999999 -70.448 458.8739999999999 -67.71Q454.35999999999996 -64.972 454.06399999999996 -60.087999999999994H439.55999999999995Q440.29999999999995 -70.00399999999999 448.58799999999997 -76.442Q456.876 -82.88 470.78799999999995 -82.88Q485.73599999999993 -82.88 493.876 -75.776Q502.01599999999996 -68.672 502.01599999999996 -55.796V0.0H487.65999999999997V-14.947999999999999H487.3639999999999Q486.328 -7.3999999999999995 479.89 -2.96Q473.45199999999994 1.48 463.0919999999999 1.48ZM466.93999999999994 -10.804Q476.26399999999995 -10.804 481.81399999999996 -15.318000000000001Q487.3639999999999 -19.832 487.3639999999999 -27.676V-38.48H464.86799999999994Q458.50399999999996 -38.48 454.582 -34.705999999999996Q450.65999999999997 -30.932 450.65999999999997 -24.715999999999998Q450.65999999999997 -18.352 454.952 -14.578Q459.24399999999997 -10.804 466.93999999999994 -10.804Z" fill="#12141C"/>
  </g>
  <rect x="926.2" y="240.0" width="59.2" height="12.6" rx="6.3" fill="#FFAC26"/>
</svg>